<svg width="141" height="45" viewBox="0 0 141 45" fill="none" xmlns="http://www.w3.org/2000/svg">
<path d="M4.32258 33.21C3.56258 33.21 2.93258 32.98 2.43258 32.52C1.95258 32.04 1.71258 31.45 1.71258 30.75C1.71258 30.05 1.95258 29.47 2.43258 29.01C2.93258 28.53 3.56258 28.29 4.32258 28.29C5.06258 28.29 5.67258 28.53 6.15258 29.01C6.63258 29.47 6.87258 30.05 6.87258 30.75C6.87258 31.45 6.63258 32.04 6.15258 32.52C5.67258 32.98 5.06258 33.21 4.32258 33.21ZM9.17555 24.69C9.17555 22.97 9.52555 21.47 10.2255 20.19C10.9255 18.89 11.8955 17.89 13.1355 17.19C14.3755 16.47 15.7955 16.11 17.3955 16.11C19.4555 16.11 21.1555 16.63 22.4955 17.67C23.8555 18.69 24.7655 20.13 25.2255 21.99H20.6955C20.4555 21.27 20.0455 20.71 19.4655 20.31C18.9055 19.89 18.2055 19.68 17.3655 19.68C16.1655 19.68 15.2155 20.12 14.5155 21C13.8155 21.86 13.4655 23.09 13.4655 24.69C13.4655 26.27 13.8155 27.5 14.5155 28.38C15.2155 29.24 16.1655 29.67 17.3655 29.67C19.0655 29.67 20.1755 28.91 20.6955 27.39H25.2255C24.7655 29.19 23.8555 30.62 22.4955 31.68C21.1355 32.74 19.4355 33.27 17.3955 33.27C15.7955 33.27 14.3755 32.92 13.1355 32.22C11.8955 31.5 10.9255 30.5 10.2255 29.22C9.52555 27.92 9.17555 26.41 9.17555 24.69ZM27.2224 24.63C27.2224 22.95 27.5524 21.46 28.2124 20.16C28.8924 18.86 29.8024 17.86 30.9424 17.16C32.1024 16.46 33.3924 16.11 34.8124 16.11C36.0524 16.11 37.1324 16.36 38.0524 16.86C38.9924 17.36 39.7424 17.99 40.3024 18.75V16.38H44.5324V33H40.3024V30.57C39.7624 31.35 39.0124 32 38.0524 32.52C37.1124 33.02 36.0224 33.27 34.7824 33.27C33.3824 33.27 32.1024 32.91 30.9424 32.19C29.8024 31.47 28.8924 30.46 28.2124 29.16C27.5524 27.84 27.2224 26.33 27.2224 24.63ZM40.3024 24.69C40.3024 23.67 40.1024 22.8 39.7024 22.08C39.3024 21.34 38.7624 20.78 38.0824 20.4C37.4024 20 36.6724 19.8 35.8924 19.8C35.1124 19.8 34.3924 19.99 33.7324 20.37C33.0724 20.75 32.5324 21.31 32.1124 22.05C31.7124 22.77 31.5124 23.63 31.5124 24.63C31.5124 25.63 31.7124 26.51 32.1124 27.27C32.5324 28.01 33.0724 28.58 33.7324 28.98C34.4124 29.38 35.1324 29.58 35.8924 29.58C36.6724 29.58 37.4024 29.39 38.0824 29.01C38.7624 28.61 39.3024 28.05 39.7024 27.33C40.1024 26.59 40.3024 25.71 40.3024 24.69ZM52.8345 18.96C53.3745 18.08 54.0745 17.39 54.9345 16.89C55.8145 16.39 56.8145 16.14 57.9345 16.14V20.55H56.8245C55.5045 20.55 54.5045 20.86 53.8245 21.48C53.1645 22.1 52.8345 23.18 52.8345 24.72V33H48.6345V16.38H52.8345V18.96Z" fill="#305EFF"/>
<path d="M81.4034 16.14C83.4434 16.14 85.0834 16.77 86.3234 18.03C87.5834 19.27 88.2134 21.01 88.2134 23.25V33H84.0134V23.82C84.0134 22.52 83.6834 21.53 83.0234 20.85C82.3634 20.15 81.4634 19.8 80.3234 19.8C79.1834 19.8 78.2734 20.15 77.5934 20.85C76.9334 21.53 76.6034 22.52 76.6034 23.82V33H72.4034V23.82C72.4034 22.52 72.0734 21.53 71.4134 20.85C70.7534 20.15 69.8534 19.8 68.7134 19.8C67.5534 19.8 66.6334 20.15 65.9534 20.85C65.2934 21.53 64.9634 22.52 64.9634 23.82V33H60.7634V16.38H64.9634V18.39C65.5034 17.69 66.1934 17.14 67.0334 16.74C67.8934 16.34 68.8334 16.14 69.8534 16.14C71.1534 16.14 72.3134 16.42 73.3334 16.98C74.3534 17.52 75.1434 18.3 75.7034 19.32C76.2434 18.36 77.0234 17.59 78.0434 17.01C79.0834 16.43 80.2034 16.14 81.4034 16.14ZM91.1189 24.63C91.1189 22.95 91.4489 21.46 92.1089 20.16C92.7889 18.86 93.6989 17.86 94.8389 17.16C95.9989 16.46 97.2889 16.11 98.7089 16.11C99.9489 16.11 101.029 16.36 101.949 16.86C102.889 17.36 103.639 17.99 104.199 18.75V16.38H108.429V33H104.199V30.57C103.659 31.35 102.909 32 101.949 32.52C101.009 33.02 99.9189 33.27 98.6789 33.27C97.2789 33.27 95.9989 32.91 94.8389 32.19C93.6989 31.47 92.7889 30.46 92.1089 29.16C91.4489 27.84 91.1189 26.33 91.1189 24.63ZM104.199 24.69C104.199 23.67 103.999 22.8 103.599 22.08C103.199 21.34 102.659 20.78 101.979 20.4C101.299 20 100.569 19.8 99.7889 19.8C99.0089 19.8 98.2889 19.99 97.6289 20.37C96.9689 20.75 96.4289 21.31 96.0089 22.05C95.6089 22.77 95.4089 23.63 95.4089 24.63C95.4089 25.63 95.6089 26.51 96.0089 27.27C96.4289 28.01 96.9689 28.58 97.6289 28.98C98.3089 29.38 99.0289 29.58 99.7889 29.58C100.569 29.58 101.299 29.39 101.979 29.01C102.659 28.61 103.199 28.05 103.599 27.33C103.999 26.59 104.199 25.71 104.199 24.69ZM117.421 19.83V27.87C117.421 28.43 117.551 28.84 117.811 29.1C118.091 29.34 118.551 29.46 119.191 29.46H121.141V33H118.501C114.961 33 113.191 31.28 113.191 27.84V19.83H111.211V16.38H113.191V12.27H117.421V16.38H121.141V19.83H117.421ZM139.612 24.33C139.612 24.93 139.572 25.47 139.492 25.95H127.342C127.442 27.15 127.862 28.09 128.602 28.77C129.342 29.45 130.252 29.79 131.332 29.79C132.892 29.79 134.002 29.12 134.662 27.78H139.192C138.712 29.38 137.792 30.7 136.432 31.74C135.072 32.76 133.402 33.27 131.422 33.27C129.822 33.27 128.382 32.92 127.102 32.22C125.842 31.5 124.852 30.49 124.132 29.19C123.432 27.89 123.082 26.39 123.082 24.69C123.082 22.97 123.432 21.46 124.132 20.16C124.832 18.86 125.812 17.86 127.072 17.16C128.332 16.46 129.782 16.11 131.422 16.11C133.002 16.11 134.412 16.45 135.652 17.13C136.912 17.81 137.882 18.78 138.562 20.04C139.262 21.28 139.612 22.71 139.612 24.33ZM135.262 23.13C135.242 22.05 134.852 21.19 134.092 20.55C133.332 19.89 132.402 19.56 131.302 19.56C130.262 19.56 129.382 19.88 128.662 20.52C127.962 21.14 127.532 22.01 127.372 23.13H135.262Z" fill="#140F12"/>
</svg>
