<svg width="59" height="45" viewBox="0 0 59 45" fill="none" xmlns="http://www.w3.org/2000/svg">
<path d="M4.79231 33.21C4.0323 33.21 3.4023 32.98 2.9023 32.52C2.4223 32.04 2.1823 31.45 2.1823 30.75C2.1823 30.05 2.4223 29.47 2.9023 29.01C3.4023 28.53 4.0323 28.29 4.79231 28.29C5.53231 28.29 6.1423 28.53 6.6223 29.01C7.1023 29.47 7.3423 30.05 7.3423 30.75C7.3423 31.45 7.1023 32.04 6.6223 32.52C6.1423 32.98 5.53231 33.21 4.79231 33.21ZM9.64527 24.69C9.64527 22.97 9.99527 21.47 10.6953 20.19C11.3953 18.89 12.3653 17.89 13.6053 17.19C14.8453 16.47 16.2653 16.11 17.8653 16.11C19.9253 16.11 21.6253 16.63 22.9653 17.67C24.3253 18.69 25.2353 20.13 25.6953 21.99H21.1653C20.9253 21.27 20.5153 20.71 19.9353 20.31C19.3753 19.89 18.6753 19.68 17.8353 19.68C16.6353 19.68 15.6853 20.12 14.9853 21C14.2853 21.86 13.9353 23.09 13.9353 24.69C13.9353 26.27 14.2853 27.5 14.9853 28.38C15.6853 29.24 16.6353 29.67 17.8353 29.67C19.5353 29.67 20.6453 28.91 21.1653 27.39H25.6953C25.2353 29.19 24.3253 30.62 22.9653 31.68C21.6053 32.74 19.9053 33.27 17.8653 33.27C16.2653 33.27 14.8453 32.92 13.6053 32.22C12.3653 31.5 11.3953 30.5 10.6953 29.22C9.99527 27.92 9.64527 26.41 9.64527 24.69Z" fill="#305EFF"/>
<path d="M49.4121 16.14C51.4521 16.14 53.0921 16.77 54.3322 18.03C55.5921 19.27 56.2221 21.01 56.2221 23.25V33H52.0221V23.82C52.0221 22.52 51.6921 21.53 51.0321 20.85C50.3722 20.15 49.4721 19.8 48.3321 19.8C47.1921 19.8 46.2821 20.15 45.6022 20.85C44.9421 21.53 44.6121 22.52 44.6121 23.82V33H40.4121V23.82C40.4121 22.52 40.0821 21.53 39.4221 20.85C38.7621 20.15 37.8621 19.8 36.7221 19.8C35.5621 19.8 34.6421 20.15 33.9621 20.85C33.3021 21.53 32.9721 22.52 32.9721 23.82V33H28.7721V16.38H32.9721V18.39C33.5121 17.69 34.2021 17.14 35.0421 16.74C35.9021 16.34 36.8421 16.14 37.8621 16.14C39.1621 16.14 40.3221 16.42 41.3421 16.98C42.3621 17.52 43.1521 18.3 43.7121 19.32C44.2521 18.36 45.0321 17.59 46.0521 17.01C47.0921 16.43 48.2121 16.14 49.4121 16.14Z" fill="white"/>
</svg>
