<svg width="24" height="24" viewBox="0 0 24 24" fill="none" xmlns="http://www.w3.org/2000/svg">
<path d="M2.52872 16.5805C2.23738 16.5805 1.99588 16.4923 1.80422 16.316C1.62022 16.132 1.52822 15.9058 1.52822 15.6375C1.52822 15.3692 1.62022 15.1468 1.80422 14.9705C1.99588 14.7865 2.23738 14.6945 2.52872 14.6945C2.81238 14.6945 3.04622 14.7865 3.23022 14.9705C3.41422 15.1468 3.50622 15.3692 3.50622 15.6375C3.50622 15.9058 3.41422 16.132 3.23022 16.316C3.04622 16.4923 2.81238 16.5805 2.52872 16.5805ZM4.38902 13.3145C4.38902 12.6552 4.52319 12.0802 4.79152 11.5895C5.05985 11.0912 5.43169 10.7078 5.90702 10.4395C6.38235 10.1635 6.92669 10.0255 7.54002 10.0255C8.32969 10.0255 8.98136 10.2248 9.49502 10.6235C10.0164 11.0145 10.3652 11.5665 10.5415 12.2795H8.80502C8.71302 12.0035 8.55586 11.7888 8.33352 11.6355C8.11886 11.4745 7.85052 11.394 7.52852 11.394C7.06852 11.394 6.70435 11.5627 6.43602 11.9C6.16769 12.2297 6.03352 12.7012 6.03352 13.3145C6.03352 13.9202 6.16769 14.3917 6.43602 14.729C6.70435 15.0587 7.06852 15.2235 7.52852 15.2235C8.18019 15.2235 8.60569 14.9322 8.80502 14.3495H10.5415C10.3652 15.0395 10.0164 15.5877 9.49502 15.994C8.97369 16.4003 8.32202 16.6035 7.54002 16.6035C6.92669 16.6035 6.38235 16.4693 5.90702 16.201C5.43169 15.925 5.05985 15.5417 4.79152 15.051C4.52319 14.5527 4.38902 13.9738 4.38902 13.3145Z" fill="#305EFF"/>
<path d="M19.633 10.037C20.415 10.037 21.0437 10.2785 21.519 10.7615C22.002 11.2368 22.2435 11.9038 22.2435 12.7625V16.5H20.6335V12.981C20.6335 12.4827 20.507 12.1032 20.254 11.8425C20.001 11.5742 19.656 11.44 19.219 11.44C18.782 11.44 18.4332 11.5742 18.1725 11.8425C17.9195 12.1032 17.793 12.4827 17.793 12.981V16.5H16.183V12.981C16.183 12.4827 16.0565 12.1032 15.8035 11.8425C15.5505 11.5742 15.2055 11.44 14.7685 11.44C14.3238 11.44 13.9712 11.5742 13.7105 11.8425C13.4575 12.1032 13.331 12.4827 13.331 12.981V16.5H11.721V10.129H13.331V10.8995C13.538 10.6312 13.8025 10.4203 14.1245 10.267C14.4542 10.1137 14.8145 10.037 15.2055 10.037C15.7038 10.037 16.1485 10.1443 16.5395 10.359C16.9305 10.566 17.2333 10.865 17.448 11.256C17.655 10.888 17.954 10.5928 18.345 10.3705C18.7437 10.1482 19.173 10.037 19.633 10.037Z" fill="#140F12"/>
</svg>
