<svg width="24" height="24" viewBox="0 0 24 24" fill="none" xmlns="http://www.w3.org/2000/svg">
<path d="M12 4C10.2446 4.00005 8.52024 4.47694 7.00008 5.38275C5.47992 6.28857 4.21758 7.59138 3.33993 9.16026C2.46227 10.7291 2.00023 12.5088 2.00024 14.3204C2.00026 16.1319 2.46232 17.9116 3.33999 19.4804C3.4726 19.7186 3.69144 19.8926 3.94836 19.9642C4.20529 20.0358 4.47925 19.9991 4.70999 19.8623C4.94073 19.7254 5.10934 19.4996 5.17873 19.2344C5.24811 18.9693 5.2126 18.6865 5.07999 18.4484C4.37143 17.1956 3.99868 15.7708 3.99999 14.3203C4.00047 13.0542 4.28309 11.8051 4.82601 10.6698C5.36894 9.53438 6.1576 8.54307 7.13104 7.77249C8.10447 7.00191 9.23659 6.47271 10.4399 6.22579C11.6431 5.97888 12.8853 6.02087 14.0703 6.34853C15.2553 6.67619 16.3515 7.28073 17.2739 8.1154C18.1964 8.95008 18.9205 9.99253 19.3903 11.1621C19.86 12.3318 20.0629 13.5972 19.983 14.8606C19.9032 16.1241 19.5429 17.3516 18.93 18.4484C18.8639 18.5662 18.821 18.6963 18.8038 18.8313C18.7866 18.9662 18.7955 19.1034 18.8299 19.2348C18.8643 19.3662 18.9235 19.4893 19.0042 19.597C19.0849 19.7047 19.1854 19.7949 19.3 19.8623C19.5296 19.9968 19.8015 20.0322 20.0563 19.9607C20.311 19.8891 20.5281 19.7165 20.66 19.4804C21.5377 17.9116 21.9997 16.1319 21.9997 14.3204C21.9997 12.5088 21.5377 10.7291 20.6601 9.16026C19.7824 7.59138 18.5201 6.28857 16.9999 5.38275C15.4797 4.47694 13.7553 4.00005 12 4ZM14.84 9.94448L13.29 11.5338C12.8888 11.3296 12.4473 11.2237 12 11.2242C11.4066 11.2242 10.8266 11.4058 10.3333 11.746C9.83993 12.0862 9.45541 12.5697 9.22835 13.1355C9.00129 13.7012 8.94188 14.3237 9.05763 14.9243C9.17339 15.5249 9.45911 16.0766 9.87867 16.5095C10.2982 16.9425 10.8328 17.2374 11.4147 17.3569C11.9967 17.4763 12.5999 17.415 13.148 17.1807C13.6962 16.9464 14.1648 16.5495 14.4944 16.0404C14.824 15.5312 15 14.9326 15 14.3203C14.9993 13.8621 14.8967 13.4101 14.7 12.9993L16.25 11.41C16.3437 11.314 16.4181 11.1999 16.4689 11.0741C16.5197 10.9484 16.5458 10.8135 16.5458 10.6772C16.5458 10.541 16.5197 10.4061 16.4689 10.2803C16.4181 10.1546 16.3437 10.0404 16.25 9.94448C16.0626 9.75227 15.8092 9.64438 15.545 9.64438C15.2808 9.64438 15.0274 9.75227 14.84 9.94448ZM12 15.3523C11.7348 15.3523 11.4804 15.2436 11.2929 15.05C11.1053 14.8565 11 14.594 11 14.3203C11 14.0466 11.1053 13.7841 11.2929 13.5905C11.4804 13.397 11.7348 13.2883 12 13.2883C12.2609 13.2866 12.5121 13.3903 12.7 13.5772C12.7957 13.674 12.8715 13.7897 12.9231 13.9173C12.9746 14.045 13.0008 14.182 13 14.3203C13 14.594 12.8946 14.8565 12.7071 15.05C12.5196 15.2436 12.2652 15.3523 12 15.3523Z" fill="white"/>
</svg>
